<svg xmlns="http://www.w3.org/2000/svg" xmlns:xlink="http://www.w3.org/1999/xlink" xmlns:fi="http://pattern.flaticon.com/" x="0" y="0" width="1440" height="3040" viewBox="0 0 720 1520"><rect x="0px" y="0px" width="100%" height="100%" opacity="1" fill="#ffffff"/><defs><g transform="matrix(0.11718779802322388 0 0 0.11718779802322388 222 317)" id="L1_6"><path d="m435.195312 104.582031-106.03125 106.03125c-13.78125 13.78125-16.730468 34.351563-8.855468 51.042969l-55.359375 53.984375-23.441407-58.605469 26.976563-53.960937c2.324219-4.648438 2.074219-10.167969-.65625-14.585938-2.730469-4.421875-7.558594-7.113281-12.753906-7.113281h-209.933594c-5.195313 0-10.023437 2.691406-12.753906 7.113281-2.734375 4.417969-2.980469 9.9375-.660157 14.585938l26.980469 53.960937-52.082031 130.207032c-23.875 59.691406 19.703125 125.023437 83.96875 125.023437h119.027344c64.3125 0 107.820312-65.394531 83.96875-125.023437l-16.585938-41.46875 64.4375-62.835938c16.910156 8.132812 37.585938 5.046875 51.339844-8.707031l106.03125-106.03125c17.578125-17.578125 17.582031-46.039063 0-63.621094-17.539062-17.539063-46.078125-17.539063-63.617188.003906zm-204.386718 106.785157-14.992188 29.988281h-131.417968l-14.996094-29.988281zm-21.1875 270.910156h-119.027344c-43.082031 0-72.136719-43.859375-56.125-83.894532l50.816406-127.035156h129.644532l50.816406 127.035156c15.980468 39.957032-12.96875 83.894532-56.125 83.894532zm267.984375-335.285156-106.027344 106.03125c-5.851563 5.847656-15.359375 5.847656-21.207031 0-5.847656-5.847657-5.847656-15.359376 0-21.207032l106.03125-106.03125c5.847656-5.847656 15.359375-5.84375 21.203125 0 5.863281 5.863282 5.863281 15.347656 0 21.207032zm0 0"/><path d="m82.558594 64c-14.230469 9.488281-22.726563 25.363281-22.726563 42.464844 0 17.105468 8.496094 32.980468 22.726563 42.46875 6.859375 4.574218 16.179687 2.761718 20.792968-4.160156 4.59375-6.890626 2.730469-16.199219-4.160156-20.792969-5.957031-3.972657-9.371094-10.355469-9.371094-17.515625 0-7.15625 3.414063-13.539063 9.371094-17.511719 14.230469-9.488281 22.730469-25.550781 22.726563-42.96875 0-17.417969-8.496094-33.476563-22.726563-42.964844-6.890625-4.59375-16.199218-2.730469-20.792968 4.160157-4.59375 6.890624-2.734376 16.199218 4.160156 20.792968 5.953125 3.96875 9.371094 10.535156 9.371094 18.011719.003906 7.476563-3.414063 14.042969-9.371094 18.015625zm0 0"/><path d="m157.535156 64c-14.230468 9.488281-22.726562 25.363281-22.726562 42.464844 0 17.105468 8.496094 32.980468 22.726562 42.46875 6.859375 4.574218 16.179688 2.761718 20.792969-4.160156 4.59375-6.890626 2.730469-16.199219-4.160156-20.792969-5.957031-3.972657-9.371094-10.355469-9.371094-17.515625 0-7.15625 3.414063-13.539063 9.371094-17.511719 14.230469-9.488281 22.726562-25.550781 22.726562-42.96875s-8.496093-33.476563-22.726562-42.964844c-6.890625-4.59375-16.199219-2.730469-20.792969 4.160157-4.59375 6.890624-2.734375 16.199218 4.160156 20.792968 5.953125 3.96875 9.371094 10.535156 9.371094 18.011719s-3.414062 14.042969-9.371094 18.015625zm0 0"/><path d="m232.511719 64c-14.234375 9.488281-22.730469 25.363281-22.730469 42.464844 0 17.105468 8.496094 32.980468 22.730469 42.46875 6.859375 4.574218 16.179687 2.761718 20.792969-4.160156 4.59375-6.890626 2.730468-16.199219-4.160157-20.792969-5.957031-3.972657-9.371093-10.355469-9.371093-17.515625 0-7.15625 3.414062-13.539063 9.371093-17.511719 14.230469-9.488281 22.726563-25.550781 22.726563-42.96875s-8.496094-33.476563-22.726563-42.964844c-6.890625-4.59375-16.203125-2.730469-20.796875 4.160157-4.59375 6.890624-2.730468 16.199218 4.160156 20.792968 5.957032 3.96875 9.371094 10.535156 9.371094 18.011719.003906 7.476563-3.414062 14.042969-9.367187 18.015625zm0 0"/></g><g transform="matrix(0.1171875 0 0 0.1171875 29 49)" id="L1_7"><path d="m497 121h-60c-8.285156 0-15 6.714844-15 15v60c0 3.976562 1.578125 7.792969 4.394531 10.605469l25.605469 25.609375v68.785156c0 16.542969-13.457031 30-30 30s-30-13.457031-30-30v-180c0-66.71875-53.832031-121-120-121-56.855469 0-103.984375 39.890625-117.195312 91h-67.378907c-12.019531 0-23.320312 4.679688-31.820312 13.179688l-42.425781 42.425781c-8.5 8.5-13.179688 19.800781-13.179688 31.820312v288.574219c0 24.8125 20.1875 45 45 45h242c24.8125 0 45-20.1875 45-45v-288.574219c0-12.019531-4.679688-23.320312-13.179688-31.820312l-42.425781-42.425781c-8.5-8.5-19.800781-13.179688-31.820312-13.179688h-58.277344c12.714844-35.113281 46.828125-61 85.703125-61 49.625 0 90 40.824219 90 91v180c0 33.085938 26.914062 60 60 60s60-26.914062 60-60v-68.785156l25.605469-25.609375c2.816406-2.8125 4.394531-6.628907 4.394531-10.605469v-60c0-8.285156-6.714844-15-15-15zm-199.394531 46.820312c2.832031 2.832032 4.394531 6.601563 4.394531 10.605469v288.574219c0 8.269531-6.730469 15-15 15h-242c-8.269531 0-15-6.730469-15-15v-288.574219c0-4.003906 1.5625-7.773437 4.394531-10.605469l25.605469-25.605468v53.785156c0 24.8125 20.1875 45 45 45h122c24.8125 0 45-20.1875 45-45v-53.785156zm-55.605469-46.820312v75c0 8.269531-6.730469 15-15 15h-122c-8.269531 0-15-6.730469-15-15v-75h61v30h-15c-8.285156 0-15 6.714844-15 15s6.714844 15 15 15h60c8.285156 0 15-6.714844 15-15s-6.714844-15-15-15h-15v-30zm240 68.785156-15 15-15-15v-38.785156h30zm0 0"/><path d="m257 271h-61c-74.917969 0-135.882812 60.445312-135.996094 134.785156v.113282c0 .035156-.003906.070312-.003906.101562v30c0 8.285156 6.71875 15 15 15 8.285156 0 15-6.714844 15-15v-15h46c74.992188 0 136-60.5625 136-135 0-8.285156-6.714844-15-15-15zm-121 120h-11l49.257812-32.476562c6.914063-4.558594 8.824219-13.863282 4.265626-20.78125-4.558594-6.917969-13.863282-8.824219-20.78125-4.265626l-63.039063 41.5625c13.371094-42.832031 53.722656-74.050781 101.296875-74.050781h44.921875c-7.371094 50.820313-51.613281 90.011719-104.921875 90.011719zm0 0"/></g><g transform="matrix(0.11718709021806717 0 0 0.11718709021806717 41.999999985351565 227)" id="L1_8"><path d="m15.003906 451.996094h16.511719c6.96875 34.195312 37.273437 60.003906 73.5 60.003906h240.03125c36.222656 0 66.527344-25.808594 73.5-60.003906h16.511719c8.285156 0 15-6.71875 15-15.003906 0-8.285157-6.714844-15-15-15h-108.417969c9.125-9.214844 17.445313-19.261719 24.824219-30.003907h65.578125c21.378906 0 39.941406-15.21875 44.136719-36.210937l17.996093-90.980469c5.578125-27.878906-15.757812-53.832031-44.128906-53.832031h-44.996094v-15.003906c0-8.285157-6.71875-15-15.003906-15h-300.035156c-8.285157 0-15.003907 6.714843-15.003907 15v71.84375c0 21.867187 3.269532 43.816406 9.542969 64.515624-22.25 2.707032-39.546875 21.699219-39.546875 44.664063v30.003906c0 5.257813.914063 10.304688 2.582032 15.003907h-17.582032c-8.285156 0-15.003906 6.714843-15.003906 15 0 8.285156 6.71875 15.003906 15.003906 15.003906zm330.042969 30h-240.03125c-19.558594 0-36.234375-12.550782-42.425781-30.011719h324.878906c-6.191406 17.460937-22.867188 30.011719-42.421875 30.011719zm-165.023437-75.007813c0 8.273438-6.730469 15.003907-15 15.003907h-17.582032c1.664063-4.699219 2.578125-9.746094 2.578125-15.003907v-30.003906c0-5.257813-.914062-10.304687-2.578125-15h17.582032c8.269531 0 15 6.726563 15 15zm255.023437-166.019531c9.433594 0 16.574219 8.617188 14.703125 17.972656l-17.996094 90.980469c-1.394531 6.988281-7.582031 12.0625-14.710937 12.0625h-48.300781c13.949218-29.394531 21.308593-61.746094 21.308593-94.179687v-26.835938zm-345.035156-30.003906h270.035156v56.839844c0 61.839843-29.707031 119.132812-79.675781 154.1875h-72.925782c1.667969-4.699219 2.582032-9.746094 2.582032-15.003907v-30.003906c0-24.816406-20.1875-45.003906-45.003906-45.003906h-30.003907c-5.128906 0-10.203125.890625-14.996093 2.582031-4.699219-1.667969-9.746094-2.582031-15.007813-2.582031h-3.996094c-7.214843-20.261719-11.007812-42.246094-11.007812-64.175781zm-30.003907 166.019531c0-8.273437 6.730469-15 15.003907-15h30.003906c8.273437 0 15 6.726563 15 15v30.003906c0 8.273438-6.726563 15.003907-15 15.003907h-30.003906c-8.273438 0-15.003907-6.730469-15.003907-15.003907zm0 0"/><path d="m142.449219 148.503906c6.871093 4.578125 16.191406 2.753906 20.804687-4.164062 4.59375-6.894532 2.730469-16.207032-4.164062-20.800782-5.957032-3.972656-9.375-10.359374-9.375-17.523437 0-7.160156 3.417968-13.546875 9.375-17.523437 14.238281-9.488282 22.738281-25.558594 22.738281-42.984376 0-17.425781-8.5-33.496093-22.734375-42.988281-6.894531-4.59375-16.210938-2.730469-20.804688 4.164063-4.597656 6.890625-2.734374 16.207031 4.160157 20.800781 5.957031 3.972656 9.378906 10.542969 9.375 18.023437 0 7.480469-3.417969 14.046876-9.375 18.019532-14.238281 9.492187-22.738281 25.375-22.738281 42.488281s8.5 32.996094 22.738281 42.488281zm0 0"/><path d="m217.457031 148.503906c6.871094 4.578125 16.195313 2.753906 20.804688-4.164062 4.597656-6.894532 2.734375-16.207032-4.160157-20.800782-5.960937-3.972656-9.378906-10.359374-9.378906-17.523437 0-7.160156 3.417969-13.546875 9.378906-17.523437 14.238282-9.488282 22.738282-25.558594 22.738282-42.984376 0-17.425781-8.5-33.496093-22.738282-42.988281-6.894531-4.59375-16.210937-2.730469-20.804687 4.164063-4.59375 6.890625-2.730469 16.207031 4.160156 20.800781 5.960938 3.972656 9.378907 10.542969 9.378907 18.023437 0 7.480469-3.417969 14.046876-9.378907 18.019532-14.238281 9.492187-22.738281 25.375-22.738281 42.488281s8.5 32.996094 22.738281 42.488281zm0 0"/><path d="m292.46875 148.503906c6.871094 4.578125 16.191406 2.753906 20.804688-4.164062 4.59375-6.894532 2.730468-16.207032-4.164063-20.800782-5.957031-3.972656-9.375-10.359374-9.375-17.523437 0-7.160156 3.414063-13.546875 9.375-17.523437 14.238281-9.488282 22.738281-25.558594 22.738281-42.984376 0-17.425781-8.5-33.496093-22.738281-42.988281-6.890625-4.59375-16.207031-2.730469-20.800781 4.164063-4.597656 6.890625-2.734375 16.207031 4.160156 20.800781 5.957031 3.972656 9.375 10.542969 9.375 18.023437 0 7.480469-3.417969 14.046876-9.375 18.019532-14.238281 9.492187-22.738281 25.375-22.738281 42.488281s8.5 32.996094 22.738281 42.488281zm0 0"/></g><path d="m27.625 471.96875c2.539062 22.820312 21.765625 40.03125 44.726562 40.03125h186.296876c22.960937 0 42.191406-17.210938 44.726562-40.046875l2.199219-19.953125h49.917969c22.085937 0 40.753906-15.816406 44.390624-37.625l19.996094-120.976562c4.601563-27.597657-16.742187-53.398438-44.386718-53.398438h-46.554688l1.472656-13.359375c.976563-8.867187-5.972656-16.640625-14.910156-16.640625h-17.582031c1.667969-4.695312 2.582031-9.742188 2.582031-15 0-15.769531-8.160156-29.664062-20.472656-37.703125l77.472656-103.296875c4.96875-6.628906 3.625-16.03125-3-21-6.625-4.972656-16.03125-3.628906-21 3l-64.804688 86.402344c-4.367187-14.953125-16.300781-26.714844-31.359374-30.824219 2.042968-5.132813 3.164062-10.726563 3.164062-16.578125v-60c0-6.066406-3.65625-11.535156-9.261719-13.859375-5.605469-2.320313-12.058593-1.035156-16.347656 3.253906-16.511719 16.511719-38.464844 25.605469-61.816406 25.605469h-17.574219c-24.8125 0-45 20.1875-45 45 0 5.851562 1.121094 11.445312 3.164062 16.578125-19.089843 5.210937-33.164062 22.703125-33.164062 43.421875 0 5.851562 1.121094 11.445312 3.164062 16.578125-19.089843 5.210937-33.164062 22.703125-33.164062 43.421875 0 5.257812.914062 10.304688 2.578125 15h-17.578125c-4.265625 0-8.328125 1.816406-11.171875 4.992188-2.847656 3.175781-4.207031 7.410156-3.738281 11.652343.601562 5.503907 27.023437 245.214844 27.035156 245.324219zm254.378906-79.96875h-64.53125c-5.351562 0-10.300781 2.851562-12.984375 7.488281-8.03125 13.886719-22.972656 22.511719-38.988281 22.511719s-30.957031-8.625-38.988281-22.511719c-2.683594-4.636719-7.628907-7.488281-12.984375-7.488281h-64.53125l-3.308594-30h67.839844c5.351562 0 10.300781-2.855469 12.980468-7.488281 8.035157-13.886719 22.976563-22.511719 38.992188-22.511719s30.957031 8.625 38.988281 22.511719c2.679688 4.632812 7.628907 7.488281 12.984375 7.488281h67.835938zm-23.355468 90h-186.296876c-7.65625 0-14.0625-5.738281-14.90625-13.332031l-5.144531-46.667969h53.199219c14.0625 18.695312 36.324219 30 60 30s45.9375-11.304688 60-30h53.195312l-5.140624 46.65625c-.84375 7.605469-7.253907 13.34375-14.90625 13.34375zm116.84375-212c9.109374 0 16.347656 9.148438 14.792968 18.484375l-20 120.980469c-1.207031 7.261718-7.429687 12.535156-14.792968 12.535156h-46.613282c19.867188-180.160156.078125-.683594 16.75-152zm-314.992188-75c0-8.269531 6.730469-15 15-15h60c8.285156 0 15-6.714844 15-15s-6.714844-15-15-15h-30c-8.269531 0-15-6.730469-15-15s6.730469-15 15-15h30c8.285156 0 15-6.714844 15-15s-6.714844-15-15-15c-8.269531 0-15-6.730469-15-15s6.730469-15 15-15h17.574219c20.4375 0 40.082031-5.1875 57.425781-14.9375v29.9375c0 8.269531-6.730469 15-15 15-8.285156 0-15 6.714844-15 15s6.714844 15 15 15h30c8.269531 0 15 6.730469 15 15s-6.730469 15-15 15h-30c-8.285156 0-15 6.714844-15 15s6.714844 15 15 15h59.960938.027343.015625c8.269532 0 14.996094 6.730469 14.996094 15s-6.730469 15-15 15h-180c-8.269531 0-15-6.730469-15-15zm238.253906 45c-1.277344 11.601562-8.859375 80.410156-10.136718 92h-63.117188c-14.0625-18.695312-36.324219-30-60-30s-45.9375 11.304688-60 30h-63.117188l-10.140624-92zm0 0" transform="matrix(0.11718788743019104 0 0 0.11718788743019104 288.000000029297 242)" id="L1_9"/><g transform="matrix(0.1171875 0 0 0.1171875 138.99999998535156 128)" id="L1_10"><path d="m435.488281 270h-44.988281v-15c0-8.285156-6.714844-15-15-15h-135v-31.074219c50.816406-7.304687 90-51.121093 90-103.925781 0-57.898438-47.101562-105-105-105s-105 47.101562-105 105c0 29.355469 12.113281 55.925781 31.597656 75h-106.597656c-24.8125 0-45 20.1875-45 45v90c0 8.285156 6.714844 15 15 15s15-6.714844 15-15v-90c0-8.269531 6.730469-15 15-15h165v30h-135c-8.285156 0-15 6.714844-15 15v41.832031c0 73.972657 22.203125 148.015625 62.519531 208.488281 2.78125 4.171876 7.464844 6.679688 12.480469 6.679688h180c5.015625 0 9.699219-2.507812 12.480469-6.679688 11.214843-16.820312 21.023437-34.695312 29.34375-53.320312h60.164062c21.378907 0 39.9375-15.214844 44.140625-36.234375l17.988282-91.941406c5.574218-27.875-15.757813-53.824219-44.128907-53.824219zm-284.988281-165c0-41.355469 33.644531-75 75-75s75 33.644531 75 75-33.644531 75-75 75-75-33.644531-75-75zm156.855469 377h-163.710938c-34.320312-54.332031-53.144531-119.753906-53.144531-185.167969v-26.832031h270v26.832031c0 65.414063-18.824219 130.835938-53.144531 185.167969zm142.832031-163.996094-17.988281 91.9375c-1.398438 6.988282-7.582031 12.058594-14.710938 12.058594h-48.28125c13.582031-39.023438 20.90625-80.488281 21.265625-122h45.015625c9.398438 0 16.585938 8.570312 14.699219 18.003906zm0 0"/><path d="m225.5 60c-8.285156 0-15 6.714844-15 15v30c0 8.285156 6.714844 15 15 15s15-6.714844 15-15v-30c0-8.285156-6.714844-15-15-15zm0 0"/></g><g transform="matrix(0.1171875 0 0 0.1171875 250 142)" id="L1_11"><path d="m256 0c-141.160156 0-256 114.394531-256 255 0 140.875 114.957031 257 256 257 140.882812 0 256-115.957031 256-257 0-140.605469-114.839844-255-256-255zm0 30c119.554688 0 217.710938 92.90625 225.484375 210.007812-20.738281.179688-32.101563 11.167969-40.414063 19.210938-7.523437 7.28125-11.519531 10.78125-20.070312 10.78125-8.433594 0-12.039062-3.25-19.394531-10.605469-8.183594-8.183593-19.390625-19.394531-40.605469-19.394531h-1.074219c-7.304687-50.816406-51.121093-90-103.925781-90s-96.621094 39.183594-103.925781 90h-1.074219c-21.214844 0-32.421875 11.210938-40.605469 19.394531-7.355469 7.355469-10.960937 10.605469-19.394531 10.605469-8.550781 0-12.546875-3.5-20.070312-10.777344-8.3125-8.046875-19.675782-19.035156-40.414063-19.214844 7.773437-117.101562 105.929687-210.007812 225.484375-210.007812zm75 225c0 41.355469-33.644531 75-75 75s-75-33.644531-75-75 33.644531-75 75-75 75 33.644531 75 75zm-75 227c-119.59375 0-217.769531-93.792969-225.492188-211.984375 8.195313.136719 12.191407 3.632813 19.5625 10.765625 8.378907 8.109375 19.859376 19.21875 40.929688 19.21875 21.214844 0 32.421875-11.210938 40.605469-19.394531 7.355469-7.355469 10.960937-10.605469 19.394531-10.605469h1.074219c7.304687 50.816406 51.121093 90 103.925781 90s96.621094-39.183594 103.925781-90h1.074219c8.433594 0 12.039062 3.25 19.394531 10.605469 8.183594 8.183593 19.390625 19.394531 40.605469 19.394531 21.070312 0 32.550781-11.109375 40.929688-19.222656 7.371093-7.128906 11.367187-10.625 19.5625-10.765625-7.722657 118.195312-105.898438 211.988281-225.492188 211.988281zm0 0"/><path d="m420.972656 195c0 8.285156-6.71875 15-15 15-8.285156 0-15-6.714844-15-15s6.714844-15 15-15c8.28125 0 15 6.714844 15 15zm0 0"/><path d="m360.972656 120c0 8.285156-6.71875 15-15 15-8.285156 0-15-6.714844-15-15s6.714844-15 15-15c8.28125 0 15 6.714844 15 15zm0 0"/><path d="m270.972656 90c0 8.285156-6.71875 15-15 15-8.285156 0-15-6.714844-15-15s6.714844-15 15-15c8.28125 0 15 6.714844 15 15zm0 0"/><path d="m180.972656 120c0 8.285156-6.71875 15-15 15-8.285156 0-15-6.714844-15-15s6.714844-15 15-15c8.28125 0 15 6.714844 15 15zm0 0"/><path d="m120.972656 195c0 8.285156-6.71875 15-15 15-8.285156 0-15-6.714844-15-15s6.714844-15 15-15c8.28125 0 15 6.714844 15 15zm0 0"/></g><path d="m15 151h16.195312c.980469 11.824219 25.285157 304.355469 26.5625 319.738281 1.929688 23.136719 21.628907 41.261719 44.847657 41.261719h184.789062c23.21875 0 42.917969-18.125 44.847657-41.265625 1.246093-15.023437 25.609374-308.269531 26.5625-319.734375h16.195312c8.285156 0 15-6.714844 15-15v-30c0-21.417969-15.042969-39.375-35.117188-43.894531l-26.421874-53.726563c-2.523438-5.128906-7.742188-8.378906-13.460938-8.378906h-240c-5.71875 0-10.9375 3.25-13.460938 8.378906l-26.421874 53.726563c-20.074219 4.519531-35.117188 22.476562-35.117188 43.894531v30c0 8.285156 6.714844 15 15 15zm61.253906 180h34.371094c19.617188 18.894531 50.550781 30 84.375 30s64.757812-11.105469 84.375-30h34.371094l-7.558594 91h-222.375zm239.984375-30h-43.277343c-4.347657 0-8.480469 1.886719-11.332032 5.167969-13.289062 15.316406-38.820312 24.832031-66.628906 24.832031s-53.339844-9.515625-66.628906-24.832031c-2.851563-3.28125-6.984375-5.167969-11.332032-5.167969h-43.277343l-2.492188-30h45.769531c4.347657 0 8.480469-1.886719 11.332032-5.167969 13.289062-15.316406 38.820312-24.832031 66.628906-24.832031s53.339844 9.515625 66.628906 24.832031c2.851563 3.28125 6.984375 5.167969 11.332032 5.167969h45.769531zm-28.84375 181h-184.789062c-7.742188 0-14.308594-6.042969-14.949219-13.75l-1.351562-16.25h217.390624l-1.351562 16.246094c-.640625 7.710937-7.207031 13.753906-14.949219 13.753906zm33.828125-241h-41.847656c-19.617188-18.894531-50.550781-30-84.375-30s-64.757812 11.105469-84.375 30h-41.851562l-7.476563-90h267.40625zm-236.882812-211h221.320312l15.246094 31h-251.8125zm-54.339844 76c0-8.269531 6.730469-15 15-15h299.914062c.035157 0 .066407.003906.097657.003906h.023437c8.253906.019532 14.964844 6.738282 14.964844 14.996094v15h-330zm0 0" transform="matrix(0.1171875 0 0 0.1171875 24 138)" id="L1_12"/><path d="m54.429688 481.230469c6.136718 18.402343 23.292968 30.769531 42.691406 30.769531h196.753906c19.398438 0 36.558594-12.367188 42.699219-30.796875 50.769531-155.101563 53.925781-159.082031 53.925781-165.203125v-15c0-6.320312-.988281-12.414062-2.808594-18.136719-9.457031-55.457031-42.277344-104.226562-89.511718-133.628906 1.496093-4.476563 2.320312-9.261719 2.320312-14.234375 0-20.71875-14.074219-38.210938-33.164062-43.421875 2.039062-5.132813 3.164062-10.726563 3.164062-16.578125v-60c0-6.066406-3.652344-11.539062-9.261719-13.859375-5.601562-2.320313-12.054687-1.039063-16.34375 3.25-16.515625 16.515625-38.46875 25.609375-61.820312 25.609375h-17.574219c-24.8125 0-45 20.1875-45 45 0 5.851562 1.121094 11.445312 3.164062 16.578125-19.089843 5.210937-33.164062 22.703125-33.164062 43.421875 0 4.972656.824219 9.757812 2.320312 14.234375-47.359374 29.480469-80.082031 78.324219-89.515624 133.609375-1.820313 5.730469-2.804688 11.832031-2.804688 18.15625v15c0 .027344.003906.054688.003906.082031.03125 5.863281 2.039063 6.574219 53.925782 165.148438zm66.070312-166.46875v-13.761719c0-16.542969 13.457031-30 30-30s30 13.457031 30 30v181h-32.28125zm150 .003906-27.71875 167.234375h-32.28125c0-10.890625 0-170.570312 0-181 0-16.542969 13.457031-30 30-30s30 13.457031 30 30zm37.605469 156.976563c-2.042969 6.132812-7.761719 10.257812-14.230469 10.257812h-20.683594c26.789063-162.710938 27.308594-162.832031 27.308594-166v-15c0-16.542969 13.457031-30 30-30 12.660156 0 23.507812 7.890625 27.90625 19.007812 1.246094 7.769532 1.960938 15.660157 2.078125 23.625zm-196.664063-298.742188c6.964844 4.421875 15.214844 7 24.058594 7h30c8.285156 0 15-6.71875 15-15 0-8.285156-6.714844-15-15-15h-30c-8.269531 0-15-6.730469-15-15 0-8.273438 6.730469-15 15-15h30c8.285156 0 15-6.71875 15-15 0-8.285156-6.714844-15-15-15-8.269531 0-15-6.730469-15-15 0-8.273438 6.730469-15 15-15h17.574219c20.441406 0 40.082031-5.191406 57.425781-14.941406v29.941406c0 8.269531-6.730469 15-15 15-8.285156 0-15 6.714844-15 15s6.714844 15 15 15h30c8.269531 0 15 6.726562 15 15 0 8.269531-6.730469 15-15 15h-30c-8.285156 0-15 6.714844-15 15s6.714844 15 15 15h30c8.835938 0 17.082031-2.570312 24.042969-6.992188 27.585937 16.449219 49.578125 40.84375 63.632812 69.351563-4.089843-.882813-8.324219-1.359375-12.675781-1.359375-17.910156 0-33.996094 7.894531-45 20.375-11.003906-12.480469-27.09375-20.375-45-20.375-17.902344 0-33.996094 7.878906-45 20.351562-11.003906-12.472656-27.097656-20.351562-45-20.351562s-33.996094 7.878906-45 20.351562c-11.003906-12.472656-27.097656-20.351562-45-20.351562-4.351562 0-8.597656.464844-12.6875 1.347656 14.054688-28.5 36.046875-52.902344 63.628906-69.347656zm-50.941406 98c16.542969 0 30 13.457031 30 30v15c0 2.910156-.214844-1.175781 27.308594 166h-20.6875c-6.464844 0-12.183594-4.121094-14.21875-10.230469l-52.378906-158.117187c.113281-7.960938.804687-15.851563 2.050781-23.621094 4.386719-11.132812 15.25-19.03125 27.925781-19.03125zm0 0" transform="matrix(0.11718763411045074 0 0 0.11718763411045074 124 313)" id="L1_13"/><path d="m285 182c8.285156 0 15-6.714844 15-15v-46h75c24.8125 0 45-20.1875 45-45v-61c0-8.285156-6.714844-15-15-15h-360c-24.8125 0-45 20.1875-45 45v422c0 24.8125 20.1875 45 45 45h360c8.285156 0 15-6.714844 15-15v-30c0-24.8125-20.1875-45-45-45h-25.511719c6.722657-9.164062 11.84375-19.296875 15.21875-30h10.292969c24.8125 0 45-20.1875 45-45v-60c0-24.8125-20.1875-45-45-45h-45v-15c0-8.285156-6.714844-15-15-15h-45v-30zm-15-30h-30v-31h30zm-240-107c0-8.269531 6.730469-15 15-15h345v46c0 8.269531-6.730469 15-15 15h-345zm0 377v-301h60v301zm360 45v15h-345c-8.269531 0-15-6.730469-15-15v-15h345c8.269531 0 15 6.730469 15 15zm-188.785156-45c-3.160156-4.511719-34.566406-25.828125-30.34375-68.476562 2.039062-20.605469 12.503906-39.152344 28.90625-51.523438h110.441406c16.40625 12.371094 26.871094 30.917969 28.910156 51.523438 4.210938 42.539062-27.289062 64.117187-30.34375 68.476562zm173.785156-150c8.269531 0 15 6.730469 15 15v60c0 8.269531-6.730469 15-15 15h-5.515625c.042969-3.792969-.125-7.609375-.5-11.433594-2.800781-28.28125-16.875-53.800781-38.984375-71.199218v-7.367188zm-75 0h-95.730469l-15-30h110.730469zm-60-60h-75c-5.199219 0-10.027344 2.691406-12.761719 7.113281-2.730469 4.421875-2.980469 9.945313-.652343 14.59375l24.464843 48.933594c-19.828125 17.25-32.402343 41.371094-35.03125 67.925781-2.546875 25.691406 4.484375 50.976563 19.492188 71.433594h-40.511719v-301h90v46c0 8.285156 6.714844 15 15 15h15zm0 0" transform="matrix(0.1171875 0 0 0.1171875 186 227)" id="L1_14"/><g transform="matrix(0.1171875 0 0 0.1171875 254.99999994140626 48)" id="L1_15"><path d="m225 361c-24.8125 0-45 20.1875-45 45s20.1875 45 45 45 45-20.1875 45-45-20.1875-45-45-45zm0 60c-8.273438 0-15-6.730469-15-15s6.726562-15 15-15c8.269531 0 15 6.730469 15 15s-6.730469 15-15 15zm0 0"/><path d="m103.609375 184.824219 16.238281 129.878906-27.578125 167.296875h-17.269531c-8.285156 0-15 6.714844-15 15s6.714844 15 15 15h300c8.28125 0 15-6.714844 15-15s-6.71875-15-15-15h-17.273438l-27.574218-167.296875 1.835937-14.703125h51.574219c22.25 0 41.402344-16.609375 44.550781-38.636719l21.425781-150c3.875-27.113281-17.1875-51.363281-44.546874-51.363281-8.300782 0-66.164063 0-80.722657 0l-17.5625-35.125c-7.671875-15.34375-23.09375-24.875-40.25-24.875h-82.917969c-17.152343 0-32.578124 9.53125-40.25 24.875l-17.558593 35.125c-15.640625 0-97.070313 0-110.730469 0-6.066406 0-11.535156 3.65625-13.859375 9.261719-2.320313 5.601562-1.035156 12.054687 3.253906 16.34375zm19.066406 297.175781 25.050781-152h154.542969l25.054688 152zm297.167969-374.878906-21.429688 150c-1.050781 7.34375-7.433593 12.878906-14.851562 12.878906h-47.824219l22.5-180h46.753907c9.074218 0 16.152343 8.003906 14.851562 17.121094zm-249.722656-68.828125c2.558594-5.117188 7.699218-8.292969 13.417968-8.292969h82.917969c5.71875 0 10.859375 3.175781 13.417969 8.292969l10.855469 21.707031h-131.460938zm157.886718 51.707031-26.25 210h-61.757812v-30h15c8.28125 0 15-6.714844 15-15s-6.71875-15-15-15h-60c-8.285156 0-15 6.714844-15 15s6.714844 15 15 15h15v30h-61.761719l-26.246093-210zm-236.25 0 5.792969 46.339844-46.339843-46.339844zm0 0"/></g><g transform="matrix(0.1171875 0 0 0.1171875 -6 -18.00000002929687)" id="L1_16"><path d="m510.414062 68.292969-30-60c-2.539062-5.082031-7.730468-8.292969-13.414062-8.292969h-151c-5.683594 0-10.875 3.210938-13.414062 8.292969l-30 60c-.960938 1.917969-1.585938 4.382812-1.585938 6.707031v150c0 .824219.066406 1.652344.203125 2.464844l7.089844 42.535156h-44.585938l7.089844-42.535156c.136719-.8125.203125-1.640625.203125-2.464844v-150c0-2.347656-.628906-4.800781-1.585938-6.707031l-30-60c-2.539062-5.082031-7.730468-8.292969-13.414062-8.292969h-151c-5.683594 0-10.875 3.210938-13.414062 8.292969l-30 60c-.96875 1.929687-1.585938 4.394531-1.585938 6.707031v150c0 .824219.0664062 1.652344.203125 2.464844l9.867187 59.203125c-6.289062 7.742187-10.070312 17.601562-10.070312 28.332031v30c0 8.285156 6.714844 15 15 15h7.292969l3.734375 22.398438c3.628906 21.789062 22.296875 37.601562 44.386718 37.601562h100.171876c22.089843 0 40.757812-15.8125 44.386718-37.601562l3.734375-22.398438h74.585938l3.734375 22.398438c3.628906 21.789062 22.296875 37.601562 44.386718 37.601562h100.171876c22.089843 0 40.757812-15.8125 44.386718-37.601562l3.734375-22.398438h7.292969c8.285156 0 15-6.714844 15-15v-30c0-10.730469-3.78125-20.589844-10.070312-28.332031l9.867187-59.203125c.132813-.8125.203125-1.640625.203125-2.464844v-150c0-2.316406-.613281-4.769531-1.585938-6.707031zm-480.414062 261.707031v-15c0-8.269531 6.730469-15 15-15h422c8.269531 0 15 6.730469 15 15v15zm295.269531-300h132.460938l15 30h-162.460938zm-24.269531 193.757812v-133.757812h181v133.757812l-7.804688 46.824219c-2.34375-.378906-4.746093-.582031-7.195312-.582031h-158.292969zm-256 46.242188c-2.449219 0-4.851562.203125-7.195312.582031l-7.804688-46.824219v-133.757812h181v133.757812l-7.707031 46.242188zm9.269531-240h132.460938l15 30h-162.460938zm131.113281 347.464844c-1.210937 7.265625-7.433593 12.535156-14.796874 12.535156h-100.171876c-7.363281 0-13.585937-5.269531-14.796874-12.535156l-2.910157-17.464844h135.585938zm271 0c-1.210937 7.265625-7.433593 12.535156-14.796874 12.535156h-100.171876c-7.363281 0-13.585937-5.269531-14.796874-12.535156l-2.910157-17.464844h135.585938zm0 0"/><path d="m391 120c-24.8125 0-45 20.1875-45 45s20.1875 45 45 45 45-20.1875 45-45-20.1875-45-45-45zm0 60c-8.269531 0-15-6.730469-15-15s6.730469-15 15-15 15 6.730469 15 15-6.730469 15-15 15zm0 0"/><path d="m121 120c-24.8125 0-45 20.1875-45 45s20.1875 45 45 45 45-20.1875 45-45-20.1875-45-45-45zm0 60c-8.269531 0-15-6.730469-15-15s6.730469-15 15-15 15 6.730469 15 15-6.730469 15-15 15zm0 0"/></g><g transform="matrix(0.10124798119068146 0 0 0.10124798119068146 139.08050918904542 57.702724943059536)" id="L1_17"><path d="m195 150h62c8.28125 0 15-6.714844 15-15s-6.71875-15-15-15h-62c-8.285156 0-15 6.714844-15 15s6.714844 15 15 15zm0 0" fill="#000000"/><path d="m257 240h-62c-8.285156 0-15 6.714844-15 15 0 8.28125 6.714844 15 15 15h62c8.28125 0 15-6.71875 15-15 0-8.285156-6.71875-15-15-15zm0 0" fill="#000000"/><path d="m257 330h-62c-8.285156 0-15 6.714844-15 14.996094 0 8.285156 6.714844 15 15 15h62c8.28125 0 15-6.714844 15-15 0-8.28125-6.71875-14.996094-15-14.996094zm0 0" fill="#000000"/><path d="m485.972656 442.394531 25.820313-154.929687c1.519531-9.125-5.519531-17.464844-14.796875-17.464844h-123.175782l17.144532-240h46.03125c8.273437 0 15 6.730469 15 15v150c0 8.28125 6.71875 15 15 15 8.285156 0 15-6.71875 15-15v-150c0-24.8125-20.1875-45-45-45-21.269532 0-399.882813 0-421.996094 0-5.53125 0-10.617188 3.046875-13.226562 7.921875-2.609376 4.878906-2.324219 10.796875.746093 15.398437l57.886719 86.832032 7.851562 86.378906v.003906l19.324219 212.535156c2.121094 23.332032 21.386719 40.925782 44.8125 40.925782h197.582031c6.234376 17.769531 23.011719 30 42.433594 30h69.171875c22.089844 0 40.757813-15.8125 44.390625-37.601563zm-16.683594-82.398437h-124.585937l-10-59.996094h144.585937zm-426.261718-329.996094h317.859375l-10.714844 150h-253.292969l-6.941406-76.359375c-.226562-2.488281-1.070312-4.882813-2.457031-6.960937zm74.429687 376.355469-17.851562-196.355469h248.425781l-4.285156 60h-26.75c-9.25 0-16.320313 8.3125-14.792969 17.464844l22.085937 132.53125h-191.894531c-7.808593 0-14.230469-5.863282-14.9375-13.640625zm324.125 43.640625h-69.171875c-7.363281 0-13.585937-5.269532-14.796875-12.53125l-7.910156-47.46875h114.585937l-7.910156 47.46875c-1.210937 7.261718-7.433594 12.53125-14.796875 12.53125zm0 0" fill="#000000"/></g></defs><g fi:class="KUsePattern"><pattern id="pattern_L1_6" width="350" height="350" patternUnits="userSpaceOnUse"><use xlink:href="#L1_6" x="-350" y="-350"/><use xlink:href="#L1_6" x="0" y="-350"/><use xlink:href="#L1_6" x="350" y="-350"/><use xlink:href="#L1_6" x="-350" y="0"/><use xlink:href="#L1_6" x="0" y="0"/><use xlink:href="#L1_6" x="350" y="0"/><use xlink:href="#L1_6" x="-350" y="350"/><use xlink:href="#L1_6" x="0" y="350"/><use xlink:href="#L1_6" x="350" y="350"/></pattern><rect x="0" y="0" width="100%" height="100%" fill="url(#pattern_L1_6)"/></g><g fi:class="KUsePattern"><pattern id="pattern_L1_7" width="350" height="350" patternUnits="userSpaceOnUse"><use xlink:href="#L1_7" x="-350" y="-350"/><use xlink:href="#L1_7" x="0" y="-350"/><use xlink:href="#L1_7" x="350" y="-350"/><use xlink:href="#L1_7" x="-350" y="0"/><use xlink:href="#L1_7" x="0" y="0"/><use xlink:href="#L1_7" x="350" y="0"/><use xlink:href="#L1_7" x="-350" y="350"/><use xlink:href="#L1_7" x="0" y="350"/><use xlink:href="#L1_7" x="350" y="350"/></pattern><rect x="0" y="0" width="100%" height="100%" fill="url(#pattern_L1_7)"/></g><g fi:class="KUsePattern"><pattern id="pattern_L1_8" width="350" height="350" patternUnits="userSpaceOnUse"><use xlink:href="#L1_8" x="-350" y="-350"/><use xlink:href="#L1_8" x="0" y="-350"/><use xlink:href="#L1_8" x="350" y="-350"/><use xlink:href="#L1_8" x="-350" y="0"/><use xlink:href="#L1_8" x="0" y="0"/><use xlink:href="#L1_8" x="350" y="0"/><use xlink:href="#L1_8" x="-350" y="350"/><use xlink:href="#L1_8" x="0" y="350"/><use xlink:href="#L1_8" x="350" y="350"/></pattern><rect x="0" y="0" width="100%" height="100%" fill="url(#pattern_L1_8)"/></g><g fi:class="KUsePattern"><pattern id="pattern_L1_9" width="350" height="350" patternUnits="userSpaceOnUse"><use xlink:href="#L1_9" x="-350" y="-350"/><use xlink:href="#L1_9" x="0" y="-350"/><use xlink:href="#L1_9" x="350" y="-350"/><use xlink:href="#L1_9" x="-350" y="0"/><use xlink:href="#L1_9" x="0" y="0"/><use xlink:href="#L1_9" x="350" y="0"/><use xlink:href="#L1_9" x="-350" y="350"/><use xlink:href="#L1_9" x="0" y="350"/><use xlink:href="#L1_9" x="350" y="350"/></pattern><rect x="0" y="0" width="100%" height="100%" fill="url(#pattern_L1_9)"/></g><g fi:class="KUsePattern"><pattern id="pattern_L1_10" width="350" height="350" patternUnits="userSpaceOnUse"><use xlink:href="#L1_10" x="-350" y="-350"/><use xlink:href="#L1_10" x="0" y="-350"/><use xlink:href="#L1_10" x="350" y="-350"/><use xlink:href="#L1_10" x="-350" y="0"/><use xlink:href="#L1_10" x="0" y="0"/><use xlink:href="#L1_10" x="350" y="0"/><use xlink:href="#L1_10" x="-350" y="350"/><use xlink:href="#L1_10" x="0" y="350"/><use xlink:href="#L1_10" x="350" y="350"/></pattern><rect x="0" y="0" width="100%" height="100%" fill="url(#pattern_L1_10)"/></g><g fi:class="KUsePattern"><pattern id="pattern_L1_11" width="350" height="350" patternUnits="userSpaceOnUse"><use xlink:href="#L1_11" x="-350" y="-350"/><use xlink:href="#L1_11" x="0" y="-350"/><use xlink:href="#L1_11" x="350" y="-350"/><use xlink:href="#L1_11" x="-350" y="0"/><use xlink:href="#L1_11" x="0" y="0"/><use xlink:href="#L1_11" x="350" y="0"/><use xlink:href="#L1_11" x="-350" y="350"/><use xlink:href="#L1_11" x="0" y="350"/><use xlink:href="#L1_11" x="350" y="350"/></pattern><rect x="0" y="0" width="100%" height="100%" fill="url(#pattern_L1_11)"/></g><g fi:class="KUsePattern"><pattern id="pattern_L1_12" width="350" height="350" patternUnits="userSpaceOnUse"><use xlink:href="#L1_12" x="-350" y="-350"/><use xlink:href="#L1_12" x="0" y="-350"/><use xlink:href="#L1_12" x="350" y="-350"/><use xlink:href="#L1_12" x="-350" y="0"/><use xlink:href="#L1_12" x="0" y="0"/><use xlink:href="#L1_12" x="350" y="0"/><use xlink:href="#L1_12" x="-350" y="350"/><use xlink:href="#L1_12" x="0" y="350"/><use xlink:href="#L1_12" x="350" y="350"/></pattern><rect x="0" y="0" width="100%" height="100%" fill="url(#pattern_L1_12)"/></g><g fi:class="KUsePattern"><pattern id="pattern_L1_13" width="350" height="350" patternUnits="userSpaceOnUse"><use xlink:href="#L1_13" x="-350" y="-350"/><use xlink:href="#L1_13" x="0" y="-350"/><use xlink:href="#L1_13" x="350" y="-350"/><use xlink:href="#L1_13" x="-350" y="0"/><use xlink:href="#L1_13" x="0" y="0"/><use xlink:href="#L1_13" x="350" y="0"/><use xlink:href="#L1_13" x="-350" y="350"/><use xlink:href="#L1_13" x="0" y="350"/><use xlink:href="#L1_13" x="350" y="350"/></pattern><rect x="0" y="0" width="100%" height="100%" fill="url(#pattern_L1_13)"/></g><g fi:class="KUsePattern" opacity="1"><pattern id="pattern_L1_14" width="350" height="350" patternUnits="userSpaceOnUse"><use xlink:href="#L1_14" x="-350" y="-350"/><use xlink:href="#L1_14" x="0" y="-350"/><use xlink:href="#L1_14" x="350" y="-350"/><use xlink:href="#L1_14" x="-350" y="0"/><use xlink:href="#L1_14" x="0" y="0"/><use xlink:href="#L1_14" x="350" y="0"/><use xlink:href="#L1_14" x="-350" y="350"/><use xlink:href="#L1_14" x="0" y="350"/><use xlink:href="#L1_14" x="350" y="350"/></pattern><rect x="0" y="0" width="100%" height="100%" fill="url(#pattern_L1_14)"/></g><g fi:class="KUsePattern" opacity="1"><pattern id="pattern_L1_15" width="350" height="350" patternUnits="userSpaceOnUse"><use xlink:href="#L1_15" x="-350" y="-350"/><use xlink:href="#L1_15" x="0" y="-350"/><use xlink:href="#L1_15" x="350" y="-350"/><use xlink:href="#L1_15" x="-350" y="0"/><use xlink:href="#L1_15" x="0" y="0"/><use xlink:href="#L1_15" x="350" y="0"/><use xlink:href="#L1_15" x="-350" y="350"/><use xlink:href="#L1_15" x="0" y="350"/><use xlink:href="#L1_15" x="350" y="350"/></pattern><rect x="0" y="0" width="100%" height="100%" fill="url(#pattern_L1_15)"/></g><g fi:class="KUsePattern"><pattern id="pattern_L1_16" width="350" height="350" patternUnits="userSpaceOnUse"><use xlink:href="#L1_16" x="-350" y="-350"/><use xlink:href="#L1_16" x="0" y="-350"/><use xlink:href="#L1_16" x="350" y="-350"/><use xlink:href="#L1_16" x="-350" y="0"/><use xlink:href="#L1_16" x="0" y="0"/><use xlink:href="#L1_16" x="350" y="0"/><use xlink:href="#L1_16" x="-350" y="350"/><use xlink:href="#L1_16" x="0" y="350"/><use xlink:href="#L1_16" x="350" y="350"/></pattern><rect x="0" y="0" width="100%" height="100%" fill="url(#pattern_L1_16)"/></g><g fi:class="KUsePattern" opacity="1"><pattern id="pattern_L1_17" width="350" height="350" patternUnits="userSpaceOnUse"><use xlink:href="#L1_17" x="-350" y="-350"/><use xlink:href="#L1_17" x="0" y="-350"/><use xlink:href="#L1_17" x="350" y="-350"/><use xlink:href="#L1_17" x="-350" y="0"/><use xlink:href="#L1_17" x="0" y="0"/><use xlink:href="#L1_17" x="350" y="0"/><use xlink:href="#L1_17" x="-350" y="350"/><use xlink:href="#L1_17" x="0" y="350"/><use xlink:href="#L1_17" x="350" y="350"/></pattern><rect x="0" y="0" width="100%" height="100%" fill="url(#pattern_L1_17)"/></g></svg>